<svg xmlns="http://www.w3.org/2000/svg" viewBox="0 0 256 177" width="256" height="177" shape-rendering="geometricPrecision">
  <!-- layer: 10788 px -->
  <g transform="translate(0.000000,177.000000) scale(0.100000,-0.100000)"
fill="rgb(95,110,124)" stroke="none">
<path d="M0 1323 c1 -341 3 -443 12 -428 10 16 14 63 16 175 1 8 -2 46 -5 84
-7 96 11 120 148 201 20 11 182 122 279 190 116 81 260 175 300 196 22 12 40
23 40 25 0 2 -178 4 -395 4 l-395 0 0 -447z"/>
<path d="M1035 1759 c4 -6 13 -8 21 -5 20 8 286 -61 374 -97 14 -5 39 -13 55
-17 35 -10 87 -28 132 -47 17 -7 35 -13 39 -13 5 0 38 -14 74 -31 247 -118
286 -149 380 -308 50 -84 76 -101 277 -183 60 -24 83 -38 85 -53 2 -11 10 -20
18 -20 39 0 61 -136 40 -240 -25 -120 -25 -125 4 -151 26 -25 26 -25 26 576
l0 600 -766 0 c-540 0 -763 -3 -759 -11z"/>
<path d="M0 359 l0 -359 610 0 c420 0 610 3 610 11 0 6 -20 9 -47 9 -27 -1
-61 0 -78 3 -16 3 -60 10 -97 16 -37 5 -72 12 -78 16 -6 4 -30 9 -53 11 -53 5
-79 11 -114 26 -15 6 -62 10 -104 9 -58 -2 -78 1 -88 13 -17 20 -50 21 -57 1
-9 -21 -70 -20 -83 2 -8 14 -12 15 -25 4 -10 -9 -25 -11 -43 -6 -38 10 -72 15
-111 15 -48 -1 -72 16 -72 50 0 26 10 36 70 76 85 55 84 55 68 99 -9 28 -10
40 0 55 9 16 8 20 -6 24 -9 3 -81 68 -160 145 l-142 139 0 -359z"/>
<path d="M2534 385 c-20 -43 -78 -90 -121 -99 -18 -4 -49 -18 -68 -32 -20 -13
-52 -31 -71 -39 -26 -10 -36 -22 -40 -45 -12 -55 -106 -112 -229 -136 -22 -4
-49 -10 -60 -12 -11 -2 -37 -3 -57 -3 -20 0 -40 -4 -43 -9 -4 -7 123 -10 354
-10 l361 0 0 210 c0 116 -2 210 -5 210 -2 0 -12 -16 -21 -35z"/>
</g>
  <!-- layer: 10158 px -->
  <g transform="translate(0.000000,177.000000) scale(0.100000,-0.100000)"
fill="rgb(121,134,147)" stroke="none">
<path d="M815 1755 c-16 -7 -24 -14 -17 -14 7 -1 11 -5 8 -9 -2 -4 8 -8 22 -7
20 0 28 -5 30 -22 6 -39 -15 -63 -53 -63 -38 0 -47 -14 -15 -23 25 -6 136 8
176 23 108 40 110 53 7 49 -78 -4 -78 -4 -77 31 0 33 -10 49 -30 50 -5 0 -3
-7 4 -15 16 -19 9 -28 -14 -19 -9 4 -15 13 -12 20 3 8 4 14 3 14 -1 -1 -15 -7
-32 -15z"/>
<path d="M953 1763 c-20 -7 -15 -23 7 -23 11 0 20 4 20 9 0 13 -12 19 -27 14z"/>
<path d="M996 1743 c-3 -7 1 -13 8 -13 8 0 21 -3 30 -6 9 -3 16 -1 16 5 0 6
-7 11 -16 11 -8 0 -13 4 -10 8 3 5 -1 9 -9 9 -8 0 -16 -6 -19 -14z"/>
<path d="M747 1743 c-12 -11 -8 -23 9 -23 8 0 12 -4 9 -10 -3 -6 1 -7 10 -3
12 4 13 8 5 13 -7 4 -16 13 -19 19 -4 6 -10 8 -14 4z"/>
<path d="M1064 1719 c-3 -5 4 -9 15 -9 10 0 27 -3 37 -7 11 -4 15 -3 11 4 -9
14 -56 23 -63 12z"/>
<path d="M1193 1718 c-3 -6 -1 -8 5 -4 6 3 13 2 17 -4 8 -12 25 -13 25 -1 0
13 -39 21 -47 9z"/>
<path d="M1280 1690 c-15 -10 -15 -10 25 -10 3 0 5 3 6 7 1 12 -15 13 -31 3z"/>
<path d="M701 1670 c-29 -24 -43 -26 -34 -3 5 14 3 13 -13 -3 -11 -10 -16 -21
-12 -22 5 -2 6 -8 3 -13 -4 -5 2 -6 12 -2 15 5 16 3 6 -8 -24 -25 -13 -33 12
-9 20 19 60 81 52 80 -1 -1 -13 -10 -26 -20z"/>
<path d="M1110 1642 c24 -22 49 -39 55 -38 5 2 7 1 3 -1 -4 -2 -5 -10 -2 -18
3 -7 1 -16 -5 -20 -22 -13 -12 -92 21 -161 46 -98 51 -192 14 -268 -31 -64
-45 -77 -127 -121 -35 -19 -60 -35 -55 -35 23 0 131 68 157 99 78 94 84 204
20 331 -34 66 -42 139 -17 159 21 17 26 3 41 -103 28 -202 178 -420 319 -466
49 -16 131 -8 182 17 22 11 46 18 56 16 11 -3 20 7 28 34 7 21 37 85 66 142
30 57 54 110 54 117 0 8 5 14 10 14 19 0 -8 -101 -68 -250 -47 -117 -47 -117
-15 -132 16 -7 40 -36 58 -68 36 -65 82 -96 211 -144 82 -30 89 -35 89 -61 1
-54 77 -75 118 -32 12 13 42 29 67 36 25 7 52 18 60 25 26 21 63 18 57 -5 -3
-10 -2 -19 3 -19 15 0 20 44 5 53 -17 9 -20 47 -4 47 7 0 10 21 8 58 -2 31 -1
62 3 68 9 14 -2 55 -13 48 -5 -3 -9 0 -9 7 0 10 -3 10 -11 2 -8 -8 -8 -17 0
-31 16 -30 14 -40 -11 -44 -15 -2 -30 -17 -44 -43 -19 -38 -23 -40 -67 -40
-25 -1 -44 2 -42 5 3 6 -19 49 -100 194 -21 38 -41 86 -45 105 -4 25 -11 35
-21 33 -18 -3 -45 41 -35 57 4 6 1 11 -7 11 -22 0 -47 34 -42 58 2 13 -1 21
-8 19 -7 -1 -12 5 -12 13 -1 26 -19 47 -50 57 -17 5 -30 17 -30 26 0 9 -6 22
-14 29 -8 8 -11 8 -7 1 8 -14 -81 -109 -112 -118 -44 -13 -84 6 -157 75 -72
68 -126 102 -220 135 -27 10 -115 48 -195 86 -80 37 -158 71 -175 74 -29 6
-29 6 15 -33z m880 -287 c12 -13 27 -22 33 -18 6 3 7 1 3 -5 -4 -7 8 -33 26
-59 43 -63 55 -83 68 -114 8 -20 16 -25 31 -22 10 3 19 0 19 -6 0 -6 -7 -11
-14 -11 -14 0 -4 -21 80 -167 28 -48 9 -52 -37 -7 -27 27 -47 38 -63 36 -30
-4 -53 22 -37 42 9 10 3 24 -29 62 -54 65 -112 186 -118 246 -5 54 4 60 38 23z"/>
<path d="M1496 1625 c-4 -11 1 -15 21 -15 14 0 24 1 22 3 -2 1 -11 8 -20 15
-14 10 -18 10 -23 -3z"/>
<path d="M541 1587 c-6 -8 -7 -18 -3 -22 4 -5 -2 -5 -13 -1 -11 4 -16 4 -12 0
4 -4 1 -14 -6 -22 -6 -9 7 -3 31 13 44 29 53 39 25 28 -11 -4 -14 -3 -9 5 10
16 1 15 -13 -1z"/>
<path d="M1623 1568 c9 -4 26 -4 39 1 20 8 18 9 -15 9 -26 -1 -34 -4 -24 -10z"/>
<path d="M608 1546 c-7 -13 -37 -43 -65 -66 -29 -23 -88 -87 -131 -143 -72
-93 -78 -105 -74 -140 8 -69 -44 -110 -94 -72 -28 21 -33 19 -49 -19 -11 -25
-12 -43 -5 -67 13 -43 13 -62 0 -54 -5 3 4 -25 21 -62 63 -143 72 -157 107
-167 42 -12 47 -6 25 32 -25 43 -2 65 96 92 96 27 163 62 212 111 27 27 46 39
57 35 9 -3 4 4 -11 15 -82 62 -108 165 -76 299 15 65 19 105 14 134 -4 22 -7
53 -8 69 0 33 -3 34 -19 3z m-206 -401 c0 -5 -5 -11 -11 -13 -6 -2 -11 4 -11
13 0 9 5 15 11 13 6 -2 11 -8 11 -13z"/>
<path d="M391 1506 c-10 -11 -8 -17 6 -25 17 -11 17 -11 -1 -9 -11 2 -20 -4
-21 -14 -2 -13 10 -8 51 19 62 41 60 39 35 39 -11 0 -17 -4 -15 -8 3 -4 -5
-12 -16 -18 -19 -10 -25 -4 -21 23 2 11 -5 8 -18 -7z"/>
<path d="M1826 1492 c-3 -5 10 -16 29 -25 19 -9 35 -12 35 -7 0 13 -58 42 -64
32z"/>
<path d="M240 1375 c-7 -9 -20 -15 -29 -13 -16 3 -71 -45 -71 -62 0 -5 26 7
58 27 32 20 59 43 59 50 0 17 -2 16 -17 -2z"/>
<path d="M78 1276 c-50 -60 -48 -76 3 -26 22 21 39 46 37 55 -2 12 -14 3 -40
-29z"/>
<path d="M30 1128 c0 -18 5 -40 10 -48 7 -11 10 -2 10 33 0 26 -4 47 -10 47
-5 0 -10 -15 -10 -32z"/>
<path d="M2190 1110 c0 -9 46 -30 66 -30 8 0 12 5 9 10 -4 6 -11 8 -16 5 -5
-3 -7 0 -4 7 4 9 -5 13 -25 14 -16 1 -30 -2 -30 -6z"/>
<path d="M2285 1079 c-9 -14 -11 -13 84 -53 96 -42 87 -40 95 -21 3 10 -5 20
-24 30 -22 11 -29 12 -33 2 -3 -9 -7 -9 -20 1 -9 8 -21 11 -27 7 -5 -3 -10 -1
-10 4 0 6 -7 11 -15 11 -9 0 -18 7 -21 15 -7 18 -20 19 -29 4z"/>
<path d="M116 1066 c3 -8 -1 -25 -10 -38 -18 -28 -66 -202 -66 -242 0 -22 -3
-26 -13 -18 -15 13 -14 45 2 85 14 35 14 37 1 37 -5 0 -10 -10 -10 -22 0 -17
-3 -19 -9 -9 -7 11 -8 -49 -2 -112 1 -5 6 -5 11 -2 6 3 27 -7 47 -24 21 -17
43 -31 49 -31 6 0 30 -14 53 -31 43 -31 43 -31 36 3 -6 31 -5 32 10 13 9 -11
18 -30 22 -42 3 -13 9 -23 14 -23 16 0 10 68 -11 120 -11 28 -20 70 -20 95 0
30 -12 68 -40 126 -22 45 -37 86 -34 91 6 10 -14 38 -27 38 -5 0 -6 -6 -3 -14z"/>
<path d="M29 971 c9 -6 11 -18 7 -35 -4 -15 -2 -26 4 -26 5 0 10 16 10 35 0
27 -4 35 -17 35 -14 0 -15 -2 -4 -9z"/>
<path d="M665 794 c-33 -8 -94 -25 -135 -38 -41 -13 -87 -27 -101 -30 -49 -11
-79 -44 -78 -84 2 -28 3 -31 6 -11 4 24 9 27 61 32 73 8 75 3 14 -23 -28 -12
-58 -30 -68 -41 -16 -18 -15 -18 10 -6 14 7 26 16 26 20 0 5 5 5 10 2 6 -3 10
-1 10 5 0 6 5 8 10 5 6 -3 10 -2 10 3 0 6 6 9 13 9 26 -2 133 36 145 51 10 14
14 14 21 3 7 -11 11 -10 20 5 9 15 12 16 20 5 7 -11 10 -11 18 3 32 57 675 58
856 0 35 -11 16 14 -26 34 -127 60 -674 96 -842 56z"/>
<path d="M33 712 c9 -10 17 -23 17 -29 0 -6 7 -14 16 -17 8 -3 12 -10 9 -16
-6 -9 8 -14 28 -11 4 0 7 -3 7 -9 0 -5 7 -7 17 -3 13 5 15 2 11 -15 -4 -13 -2
-20 4 -16 5 3 23 -6 39 -22 52 -49 81 -35 38 20 -21 26 -148 116 -183 129 -19
7 -19 7 -3 -11z"/>
<path d="M898 723 c12 -2 32 -2 45 0 12 2 2 4 -23 4 -25 0 -35 -2 -22 -4z"/>
<path d="M2500 593 c0 -9 -3 -14 -6 -10 -19 18 -74 -99 -74 -157 0 -61 67 -85
109 -40 15 15 15 16 0 11 -13 -4 -15 -1 -12 14 3 12 11 18 19 15 7 -3 16 4 19
15 9 26 0 35 -19 20 -25 -21 -36 -3 -36 55 0 41 4 54 15 54 8 0 15 6 15 14 0
8 -7 16 -15 20 -10 3 -15 -1 -15 -11z"/>
<path d="M1465 570 c-19 -7 -18 -8 5 -14 79 -19 121 -25 134 -20 9 3 16 2 16
-3 0 -6 25 -15 56 -22 31 -7 96 -25 145 -41 49 -15 89 -24 89 -20 0 5 -23 16
-51 25 -36 12 -47 20 -38 26 9 6 10 9 2 9 -6 0 -18 6 -26 14 -24 24 -144 57
-171 46 -14 -5 -39 -5 -62 1 -47 10 -72 10 -99 -1z"/>
<path d="M706 524 c-38 -7 -97 -23 -133 -35 -35 -11 -70 -18 -78 -15 -8 3 -14
0 -12 -7 1 -7 -8 -12 -20 -11 -13 0 -23 -3 -23 -8 0 -5 -4 -6 -10 -3 -5 3 -10
1 -10 -5 0 -6 -4 -8 -10 -5 -5 3 -10 2 -10 -4 0 -6 -6 -8 -14 -5 -8 3 -17 0
-22 -7 -5 -8 -3 -10 7 -4 12 8 12 6 0 -8 -7 -9 -17 -14 -22 -12 -4 3 -12 -3
-18 -13 -8 -15 -4 -25 20 -51 16 -18 29 -27 29 -21 0 6 5 8 10 5 6 -3 10 -1
10 5 0 6 5 8 10 5 6 -3 10 -1 10 5 0 6 5 8 10 5 6 -3 10 -1 10 5 0 6 5 8 10 5
6 -3 10 -2 10 3 0 6 6 10 13 9 32 -1 47 4 44 15 -2 15 96 50 203 72 195 40
513 42 737 6 96 -16 88 0 -18 36 -156 53 -543 73 -733 38z m-216 -141 c0 -13
-109 -56 -125 -49 -20 7 -19 33 3 45 20 12 122 15 122 4z"/>
<path d="M298 503 c-20 -5 -24 -23 -5 -23 17 0 41 17 31 22 -5 2 -17 3 -26 1z"/>
<path d="M2108 475 c2 -14 8 -25 13 -25 14 0 11 26 -5 39 -11 9 -12 6 -8 -14z"/>
<path d="M275 456 c11 -8 24 -12 28 -9 11 7 -12 23 -32 23 -11 0 -9 -4 4 -14z"/>
<path d="M2241 367 c-1 -9 -10 -25 -21 -34 -18 -16 -18 -18 -3 -35 9 -10 19
-18 23 -18 12 0 18 50 10 79 -5 16 -9 19 -9 8z"/>
<path d="M315 310 c-4 -6 1 -7 11 -3 12 4 15 3 10 -5 -4 -7 -1 -12 10 -12 13
0 14 3 4 15 -14 17 -26 19 -35 5z"/>
<path d="M1597 290 c-10 -12 -29 -20 -47 -20 -16 0 -30 -4 -30 -10 0 -5 10
-10 23 -9 36 1 92 25 92 39 0 22 -19 22 -38 0z"/>
<path d="M272 278 c-14 -14 -16 -38 -3 -38 5 0 14 7 21 15 17 20 0 41 -18 23z"/>
<path d="M1786 260 c-44 -10 -105 -21 -136 -25 -56 -7 -89 -19 -79 -29 12 -12
309 51 309 65 0 11 3 11 -94 -11z"/>
<path d="M2241 227 c-6 -8 -8 -17 -5 -20 8 -7 54 14 54 25 0 13 -36 9 -49 -5z"/>
<path d="M1508 213 c-21 -5 -24 -23 -4 -23 22 0 46 11 46 21 0 9 -13 10 -42 2z"/>
<path d="M188 196 c-24 -18 -23 -46 2 -46 22 0 27 16 8 23 -9 3 -7 10 7 21 24
19 7 21 -17 2z"/>
<path d="M1418 203 c-20 -5 -24 -23 -5 -23 24 0 57 12 57 21 0 9 -22 10 -52 2z"/>
<path d="M1340 190 c0 -5 9 -10 20 -10 11 0 20 5 20 10 0 6 -9 10 -20 10 -11
0 -20 -4 -20 -10z"/>
<path d="M1250 180 c0 -5 16 -10 35 -10 19 0 35 5 35 10 0 6 -16 10 -35 10
-19 0 -35 -4 -35 -10z"/>
<path d="M286 144 c-3 -8 -2 -12 4 -9 6 3 10 0 10 -7 0 -10 3 -9 9 2 10 15 6
30 -9 30 -4 0 -11 -7 -14 -16z"/>
<path d="M373 131 c0 -11 5 -17 9 -15 5 3 5 10 2 16 -5 7 5 9 30 4 23 -4 36
-3 36 4 0 5 -18 10 -39 10 -33 0 -40 -3 -38 -19z"/>
<path d="M555 130 c3 -5 26 -10 51 -10 24 0 44 5 44 10 0 6 -23 10 -51 10 -31
0 -48 -4 -44 -10z"/>
<path d="M1138 133 c12 -2 30 -2 40 0 9 3 -1 5 -23 4 -22 0 -30 -2 -17 -4z"/>
</g>
  <!-- layer: 8592 px -->
  <g transform="translate(0.000000,177.000000) scale(0.100000,-0.100000)"
fill="rgb(136,148,160)" stroke="none">
<path d="M886 1762 c5 -4 10 -23 10 -42 -1 -35 -1 -35 71 -31 56 2 76 -1 88
-12 8 -9 36 -33 61 -53 31 -25 43 -42 39 -53 -5 -13 -4 -14 7 -3 11 11 4 22
-42 64 -73 67 -46 61 150 -31 80 -38 168 -76 195 -86 93 -33 150 -68 215 -131
72 -70 109 -88 157 -79 32 6 83 55 83 80 0 54 -476 239 -837 326 -89 21 -143
39 -143 47 0 7 -13 12 -32 12 -18 0 -28 -4 -22 -8z"/>
<path d="M765 1702 c-27 -15 -51 -34 -53 -43 -3 -18 50 -47 56 -30 2 6 19 11
37 11 38 0 59 25 53 63 -4 32 -35 31 -93 -1z"/>
<path d="M1250 1700 c20 -13 43 -13 35 0 -3 6 -16 10 -28 10 -18 0 -19 -2 -7
-10z"/>
<path d="M1320 1680 c0 -4 7 -11 16 -14 22 -9 26 -8 22 6 -5 13 -38 20 -38 8z"/>
<path d="M624 1666 c-10 -8 -16 -17 -13 -20 10 -10 39 5 39 20 0 17 -2 17 -26
0z"/>
<path d="M1392 1658 c3 -7 13 -15 22 -16 12 -3 17 1 14 10 -3 7 -13 15 -22 16
-12 3 -17 -1 -14 -10z"/>
<path d="M553 1618 c-13 -6 -23 -17 -23 -25 0 -8 -4 -12 -9 -8 -5 3 -12 1 -16
-5 -13 -21 21 -8 55 20 36 30 33 37 -7 18z"/>
<path d="M500 1528 c-196 -134 -340 -227 -367 -238 -11 -5 -38 -26 -59 -46
-30 -31 -36 -34 -32 -16 8 28 -8 29 -17 1 -5 -15 -2 -25 9 -31 23 -13 24 -188
1 -188 -8 0 -15 -7 -15 -15 0 -8 7 -15 16 -15 19 0 15 -70 -7 -125 -16 -41
-17 -74 -2 -87 10 -8 13 -4 13 18 0 40 48 214 66 242 9 13 13 30 10 38 -13 34
18 10 47 -37 34 -55 44 -52 28 7 -8 28 -7 45 4 70 16 38 21 40 49 19 50 -38
102 3 94 72 -4 35 2 47 74 140 43 56 102 120 131 143 28 23 58 53 65 66 7 14
17 22 21 20 4 -3 19 7 32 22 13 14 16 20 7 13 -20 -15 -25 -2 -6 17 37 37 -28
1 -162 -90z"/>
<path d="M1568 1594 c30 -21 64 -16 37 6 -11 9 -16 10 -11 3 4 -7 2 -13 -3
-13 -6 0 -11 5 -11 10 0 6 -8 10 -17 10 -14 0 -13 -3 5 -16z"/>
<path d="M1673 1554 c16 -8 31 -13 35 -10 9 9 -3 16 -34 21 -29 5 -29 5 -1
-11z"/>
<path d="M426 1529 c-15 -12 -25 -23 -23 -26 8 -8 57 20 57 34 0 17 -3 17 -34
-8z"/>
<path d="M1143 1510 c0 -25 2 -35 4 -22 2 12 2 32 0 45 -2 12 -4 2 -4 -23z"/>
<path d="M1730 1535 c0 -8 7 -15 15 -15 8 0 15 4 15 9 0 5 -7 11 -15 15 -9 3
-15 0 -15 -9z"/>
<path d="M278 1425 c-26 -18 -44 -36 -40 -40 4 -4 -2 -5 -12 -3 -10 1 -21 -3
-23 -9 -8 -22 15 -14 69 24 29 20 55 38 57 39 1 2 1 7 0 12 -2 5 -25 -5 -51
-23z"/>
<path d="M1151 1455 c0 -5 14 -37 30 -70 16 -33 26 -49 23 -35 -7 29 -53 120
-53 105z"/>
<path d="M1952 1332 c6 -60 64 -181 118 -246 32 -38 38 -52 29 -62 -16 -20 8
-47 37 -41 17 3 33 -7 60 -34 74 -75 72 -50 -6 85 -33 57 -64 114 -70 127 -34
76 -141 219 -163 219 -5 0 -7 -21 -5 -48z"/>
<path d="M140 1337 c-24 -20 -24 -40 0 -25 11 7 20 18 20 25 0 16 -1 16 -20 0z"/>
<path d="M850 1316 c-12 -33 -12 -36 -1 -36 10 0 25 50 17 58 -3 2 -10 -7 -16
-22z"/>
<path d="M2050 1312 c0 -5 9 -17 20 -27 19 -17 19 -17 7 9 -12 25 -27 35 -27
18z"/>
<path d="M2121 1200 c0 -16 22 -50 33 -50 11 0 6 14 -14 40 -13 16 -20 20 -19
10z"/>
<path d="M380 1145 c0 -9 5 -15 11 -13 6 2 11 8 11 13 0 5 -5 11 -11 13 -6 2
-11 -4 -11 -13z"/>
<path d="M2180 1118 c0 -13 15 -50 34 -83 18 -33 52 -95 75 -138 57 -104 106
-118 145 -42 14 26 29 41 44 43 63 9 3 80 -107 127 -50 21 -90 43 -88 49 2 6
-2 16 -9 23 -18 18 -29 16 -14 -2 16 -19 -7 -21 -45 -3 -33 15 -32 30 3 22 26
-6 26 -6 7 9 -28 23 -45 21 -45 -5z"/>
<path d="M1125 1059 c-52 -40 -57 -46 -17 -23 29 16 73 55 61 53 -2 0 -22 -14
-44 -30z"/>
<path d="M2312 1079 c2 -6 25 -19 51 -29 55 -21 53 -9 -3 20 -45 23 -53 24
-48 9z"/>
<path d="M2520 820 c0 -27 5 -50 10 -50 6 0 10 23 10 50 0 28 -4 50 -10 50 -5
0 -10 -22 -10 -50z"/>
<path d="M0 756 c0 -18 30 -76 39 -76 15 0 14 5 -14 46 -14 20 -25 34 -25 30z"/>
<path d="M933 721 c-32 -6 -32 -6 -16 -40 22 -44 11 -60 -63 -89 -59 -22 -59
-22 21 -16 69 6 146 6 475 0 30 -1 58 -5 62 -10 3 -5 25 -4 51 3 33 10 58 10
93 3 28 -6 57 -7 71 -1 26 10 147 -23 170 -47 8 -8 20 -14 26 -14 8 0 7 -3 -2
-9 -9 -6 1 -13 37 -25 28 -10 52 -21 54 -25 2 -4 43 -23 92 -43 89 -35 126
-39 126 -12 0 8 7 14 15 14 25 0 17 27 -9 34 -15 4 -26 15 -28 27 -6 39 -337
155 -582 204 -218 43 -495 65 -593 46z"/>
<path d="M775 711 c-43 -6 -51 -24 -26 -55 7 -8 11 -23 7 -31 -8 -21 19 -19
70 4 49 22 60 37 44 56 -6 8 -9 19 -5 25 7 11 -22 11 -90 1z"/>
<path d="M402 663 c-43 -4 -43 -4 -41 -51 4 -72 -10 -126 -37 -147 -19 -14
-22 -21 -12 -32 8 -10 8 -17 0 -25 -15 -15 -15 -38 -1 -38 6 0 20 11 30 24 29
37 245 135 299 136 9 0 16 9 16 20 0 18 -5 20 -31 14 -45 -10 -147 -59 -172
-82 -15 -15 -23 -18 -26 -9 -3 7 -6 3 -7 -8 -1 -18 -2 -17 -11 4 -7 18 -5 30
7 49 13 20 14 28 4 48 -11 19 -10 26 1 40 13 16 12 16 -9 5 -13 -7 -28 -10
-35 -8 -7 3 14 17 46 32 59 27 70 36 40 33 -10 -1 -37 -3 -61 -5z"/>
<path d="M2490 641 c0 -11 5 -23 10 -26 6 -4 10 5 10 19 0 14 -4 26 -10 26 -5
0 -10 -9 -10 -19z"/>
<path d="M2500 516 c0 -30 5 -58 10 -61 17 -10 38 14 33 35 -3 11 0 27 7 35
10 12 10 15 -3 15 -8 0 -17 7 -21 15 -12 33 -26 12 -26 -39z"/>
<path d="M2172 513 c-12 -2 -27 -14 -33 -25 -8 -15 -8 -19 0 -14 6 4 11 2 11
-3 0 -6 5 -11 10 -11 6 0 10 5 10 12 0 6 7 20 17 30 9 10 14 17 12 17 -2 -1
-14 -4 -27 -6z"/>
<path d="M2242 456 c-4 -61 -66 -120 -105 -100 -7 3 1 -6 16 -20 34 -31 37
-32 65 -6 24 23 36 70 29 121 -3 31 -4 31 -5 5z"/>
<path d="M1073 449 c52 -31 -22 -116 -126 -144 -37 -10 -71 -14 -75 -10 -4 4
0 10 8 13 40 14 81 70 78 107 -2 36 -3 37 -38 31 -19 -3 -55 -6 -80 -6 -45 0
-45 0 -12 -20 91 -56 -25 -118 -337 -179 -146 -29 -255 -66 -245 -83 3 -5 10
-6 15 -2 19 12 91 -7 85 -23 -3 -8 -1 -11 4 -8 6 3 10 1 10 -5 0 -6 4 -9 10
-5 5 3 7 12 3 20 -4 12 4 15 37 15 31 0 41 -4 37 -13 -7 -18 8 -41 21 -33 6 4
9 13 5 21 -4 13 10 15 86 15 54 0 91 -4 91 -10 0 -5 -7 -10 -15 -10 -8 0 -15
-4 -15 -10 0 -16 47 -12 54 5 4 13 37 15 203 15 335 1 611 27 928 91 229 45
227 43 78 92 -226 75 -467 124 -648 132 -66 3 -133 8 -150 10 -24 4 -27 3 -12
-6z m562 -159 c0 -14 -56 -38 -92 -39 -13 -1 -23 4 -23 9 0 6 14 10 30 10 18
0 37 8 47 20 19 22 38 22 38 0z m245 -19 c0 -11 -141 -44 -277 -65 -136 -22
-263 -31 -263 -19 0 6 35 13 78 17 100 9 312 42 388 60 74 18 74 18 74 7z
m-560 -91 c0 -5 -16 -10 -35 -10 -19 0 -35 5 -35 10 0 6 16 10 35 10 19 0 35
-4 35 -10z"/>
<path d="M368 379 c-22 -12 -23 -38 -3 -45 16 -7 125 36 125 49 0 11 -102 8
-122 -4z"/>
<path d="M2472 341 c-19 -16 -29 -32 -24 -35 6 -3 20 7 32 24 12 17 26 28 31
25 5 -4 9 -1 9 4 0 17 -13 12 -48 -18z"/>
<path d="M299 291 c-34 -28 -13 -44 26 -20 17 10 24 19 17 19 -7 0 -10 5 -7
10 10 17 -11 11 -36 -9z"/>
<path d="M2370 290 c-8 -5 -12 -12 -9 -15 8 -8 39 5 39 16 0 11 -11 11 -30 -1z"/>
<path d="M2303 253 c-7 -2 -13 -11 -13 -19 0 -12 4 -12 20 -4 32 17 26 37 -7
23z"/>
<path d="M195 226 c-16 -13 -27 -28 -23 -32 4 -4 14 -2 22 5 8 6 18 10 22 9 5
-2 19 4 32 13 20 14 21 17 7 23 -24 9 -27 8 -60 -18z"/>
<path d="M2233 213 c-7 -2 -13 -14 -13 -24 0 -25 16 -17 23 11 3 11 4 20 4 19
-1 0 -8 -3 -14 -6z"/>
<path d="M785 85 c20 -16 37 -16 36 0 0 6 -13 11 -28 13 -27 2 -27 2 -8 -13z"/>
<path d="M2105 79 c-11 -17 -2 -18 25 -4 24 14 24 14 3 15 -12 0 -25 -5 -28
-11z"/>
</g>
  <!-- layer: 8330 px -->
  <g transform="translate(0.000000,177.000000) scale(0.100000,-0.100000)"
fill="rgb(110,124,137)" stroke="none">
<path d="M1062 1748 c-19 -19 -14 -25 21 -26 29 0 30 1 9 9 -13 5 -20 13 -17
19 8 14 2 13 -13 -2z"/>
<path d="M770 1729 c0 -7 -10 -9 -25 -5 -14 4 -25 2 -25 -3 0 -16 33 -17 63
-3 32 16 34 22 7 22 -11 0 -20 -5 -20 -11z"/>
<path d="M1125 1720 c-3 -6 0 -12 7 -14 236 -72 258 -76 258 -42 0 1 -13 1
-30 -2 -16 -2 -38 -1 -47 4 -10 4 -20 8 -23 8 -3 1 -16 8 -30 16 -14 7 -26 13
-27 12 -2 -1 -6 -1 -10 -1 -5 1 -16 0 -26 -1 -10 -1 -29 6 -42 14 -15 10 -26
12 -30 6z"/>
<path d="M665 1690 c-8 -12 13 -23 27 -14 7 5 8 3 3 -7 -8 -12 -6 -12 8 0 9 7
17 16 17 20 0 9 -49 10 -55 1z"/>
<path d="M628 1639 c-21 -11 -38 -21 -38 -23 0 -9 47 8 69 26 30 23 17 22 -31
-3z"/>
<path d="M1410 1631 c0 -15 35 -19 48 -4 11 11 7 13 -18 13 -16 0 -30 -4 -30
-9z"/>
<path d="M1469 1607 c5 -5 21 -10 35 -10 14 -1 26 -6 26 -12 0 -10 20 15 20
25 0 3 -20 5 -45 5 -24 0 -40 -4 -36 -8z"/>
<path d="M547 1585 c-15 -14 -24 -25 -19 -25 9 0 52 37 52 45 0 8 -4 6 -33
-20z"/>
<path d="M1172 1568 c-22 -22 -14 -94 19 -158 91 -180 39 -331 -144 -415 -104
-48 -185 -43 -318 20 -36 18 -36 18 -77 -23 -50 -50 -116 -85 -213 -112 -98
-27 -121 -49 -96 -92 21 -37 18 -42 -22 -33 -39 8 -45 17 -87 117 -19 46 -39
85 -44 86 -6 2 -8 8 -4 13 3 5 0 9 -6 9 -6 0 -9 4 -6 9 3 5 -3 20 -14 32 -20
24 -20 24 -11 -3 6 -14 24 -54 40 -87 21 -41 31 -75 31 -105 0 -25 9 -68 20
-96 21 -52 27 -120 11 -120 -5 0 -11 10 -14 23 -4 12 -13 31 -22 42 -15 19
-16 18 -10 -13 7 -34 7 -34 -36 -3 -23 17 -47 31 -53 31 -7 0 -27 13 -46 30
-19 16 -38 29 -42 30 -15 0 -8 -21 9 -27 23 -9 132 -81 161 -107 13 -12 27
-19 30 -16 4 3 8 -10 9 -28 2 -18 -1 -31 -6 -28 -5 3 -14 -1 -21 -9 -12 -15
-4 -20 23 -16 4 0 7 -8 7 -18 0 -21 61 -48 80 -36 20 12 10 25 -15 19 -15 -4
-25 -2 -25 5 0 6 7 11 16 11 10 0 13 6 10 18 -4 12 1 25 13 36 13 12 18 27 16
47 -2 16 0 29 5 29 6 0 10 10 10 23 0 13 6 29 13 36 10 10 8 11 -7 5 -18 -7
-18 -6 -2 18 11 17 30 28 54 33 20 4 89 24 152 45 77 27 156 45 240 56 158 20
152 18 144 49 -8 31 8 33 21 3 8 -19 19 -23 65 -25 169 -7 390 -27 495 -44 66
-10 136 -19 156 -19 20 0 42 -6 48 -13 6 -8 30 -19 53 -26 24 -7 104 -45 178
-84 258 -135 302 -157 321 -157 10 0 19 -5 19 -11 0 -5 -8 -9 -17 -7 -10 1
-23 -1 -30 -5 -12 -8 -6 -47 8 -47 5 0 9 -11 9 -25 0 -14 -4 -25 -10 -25 -19
0 -10 -20 23 -51 17 -17 26 -28 19 -24 -7 3 -15 -1 -18 -10 -4 -9 -13 -14 -20
-11 -9 3 -14 -2 -14 -14 0 -11 -4 -20 -10 -20 -5 0 -10 -5 -10 -10 0 -7 25
-10 64 -8 35 2 62 7 59 11 -3 4 9 13 26 20 17 6 31 15 31 20 0 4 5 5 10 2 6
-3 24 3 40 15 32 22 41 43 15 33 -25 -9 -55 26 -55 63 0 38 36 135 53 146 9 5
9 10 1 18 -15 15 1 90 21 106 8 6 15 16 15 22 0 14 -41 12 -60 -4 -8 -7 -35
-18 -60 -25 -25 -7 -55 -23 -67 -36 -41 -43 -117 -22 -118 32 0 26 -7 31 -89
61 -129 48 -175 79 -211 144 -18 32 -42 61 -58 68 -32 15 -32 15 15 132 58
143 87 250 70 250 -12 0 -33 -71 -25 -83 3 -6 2 -7 -3 -4 -6 3 -16 -4 -24 -16
-12 -20 -12 -21 3 -8 15 12 16 10 6 -17 -12 -35 -44 -69 -34 -36 12 39 -35
-53 -51 -99 -12 -35 -20 -47 -32 -44 -10 2 -34 -5 -56 -16 -51 -25 -133 -33
-182 -17 -142 46 -291 264 -319 468 -14 99 -23 120 -43 100z m483 -667 c-16
-14 -55 -23 -55 -12 0 9 20 17 50 20 8 1 10 -2 5 -8z m-75 -21 c0 -5 -9 -10
-20 -10 -11 0 -20 5 -20 10 0 6 9 10 20 10 11 0 20 -4 20 -10z m830 -505 c0
-16 -9 -19 -34 -9 -25 9 -19 24 9 24 16 0 25 -6 25 -15z m-50 -74 c0 -12 -20
-25 -27 -18 -7 7 6 27 18 27 5 0 9 -4 9 -9z"/>
<path d="M1629 1550 c26 -22 41 -26 41 -10 0 6 -12 15 -26 20 -37 15 -42 12
-15 -10z"/>
<path d="M443 1516 c-45 -29 -41 -42 5 -15 47 28 56 36 40 35 -7 0 -27 -9 -45
-20z"/>
<path d="M1680 1532 c0 -11 51 -35 58 -27 7 7 -29 34 -45 35 -7 0 -13 -4 -13
-8z"/>
<path d="M1757 1513 c-12 -12 -7 -20 19 -32 30 -13 48 -5 21 10 -9 6 -15 14
-12 20 7 10 -18 13 -28 2z"/>
<path d="M1886 1453 c-5 -12 -1 -22 13 -32 12 -7 21 -20 21 -27 0 -17 16 -18
25 -3 4 6 -2 17 -14 25 -12 9 -19 19 -16 24 3 4 -1 13 -9 19 -11 9 -15 8 -20
-6z"/>
<path d="M319 1429 c-7 -10 -17 -19 -22 -19 -4 0 -17 -9 -29 -20 -12 -11 -19
-20 -16 -20 5 0 106 65 115 74 1 1 -6 2 -16 3 -10 1 -24 -7 -32 -18z"/>
<path d="M24 1176 c-1 -18 2 -23 13 -19 15 6 14 34 -2 40 -5 1 -11 -8 -11 -21z"/>
<path d="M32 1050 c-10 -17 -10 -20 3 -20 8 0 15 9 15 20 0 11 -1 20 -3 20 -1
0 -8 -9 -15 -20z"/>
<path d="M815 826 c-80 -13 -80 -13 50 -15 392 -4 666 -47 689 -107 3 -8 16
-14 28 -14 13 0 65 -11 117 -25 65 -18 98 -22 105 -15 16 16 26 12 26 -10 0
-11 7 -20 15 -20 8 0 15 5 15 10 0 18 24 11 45 -14 11 -13 52 -37 90 -53 39
-16 69 -34 68 -39 -2 -11 71 -13 82 -2 4 3 23 5 43 3 21 -3 28 -2 17 1 -11 3
-24 11 -30 18 -14 18 -327 179 -415 214 -154 60 -734 102 -945 68z"/>
<path d="M2502 768 c2 -12 10 -23 18 -25 11 -4 12 -2 2 5 -7 5 -10 16 -6 25 3
10 1 17 -6 17 -6 0 -10 -10 -8 -22z"/>
<path d="M865 739 c-4 -6 -5 -12 -4 -13 8 -7 79 7 79 15 0 13 -67 11 -75 -2z"/>
<path d="M1170 741 c0 -14 41 -25 49 -14 3 6 13 13 21 16 8 3 -4 6 -27 6 -24
1 -43 -3 -43 -8z"/>
<path d="M780 730 c-8 -5 -12 -11 -9 -14 7 -8 49 5 49 15 0 12 -21 11 -40 -1z"/>
<path d="M1300 725 c0 -8 6 -15 14 -15 8 0 16 7 20 15 4 10 -1 15 -14 15 -11
0 -20 -7 -20 -15z"/>
<path d="M717 723 c-13 -13 -7 -21 13 -16 11 3 20 9 20 14 0 10 -24 12 -33 2z"/>
<path d="M1380 715 c0 -8 3 -15 6 -15 3 0 12 7 20 15 14 13 13 15 -5 15 -12 0
-21 -6 -21 -15z"/>
<path d="M740 550 c-17 -11 -8 -23 14 -18 9 2 12 8 8 15 -5 8 -13 9 -22 3z"/>
<path d="M883 553 c-126 -8 -59 -19 97 -15 166 5 312 -8 404 -35 89 -25 136
-45 136 -58 0 -7 20 -15 49 -19 60 -8 183 -39 271 -68 45 -15 65 -18 68 -9 5
14 13 14 49 0 26 -10 27 -12 8 -19 -19 -7 -19 -8 -1 -15 11 -5 21 -3 27 6 7
11 9 9 9 -6 0 -17 2 -17 10 -5 7 11 10 11 10 2 0 -7 4 -11 9 -8 4 3 44 -18 88
-48 63 -41 85 -51 102 -45 11 5 21 11 21 14 0 4 -4 4 -9 1 -5 -3 -11 8 -13 24
-3 17 0 30 5 30 24 0 -18 29 -51 35 -20 4 -42 11 -48 15 -25 21 -353 133 -474
161 -224 54 -531 79 -767 62z"/>
<path d="M646 531 c-16 -3 -31 -11 -33 -17 -3 -8 11 -8 47 0 27 5 50 14 50 18
0 9 -21 9 -64 -1z"/>
<path d="M550 503 c-54 -20 -103 -47 -92 -50 7 -3 18 -1 25 5 7 5 33 15 60 22
26 7 47 17 47 21 0 10 -17 11 -40 2z"/>
<path d="M973 474 c-32 -14 -4 -19 102 -19 75 0 114 3 112 10 -4 10 -192 18
-214 9z"/>
<path d="M850 460 c-8 -5 -12 -11 -10 -14 8 -7 60 6 60 15 0 12 -31 11 -50 -1z"/>
<path d="M1280 461 c0 -9 41 -23 48 -16 2 2 1 8 -3 14 -8 13 -45 15 -45 2z"/>
<path d="M1380 451 c0 -17 15 -19 28 -5 11 12 9 14 -8 14 -11 0 -20 -4 -20 -9z"/>
<path d="M720 435 c0 -9 6 -12 15 -9 8 4 15 10 15 15 0 5 -7 9 -15 9 -8 0 -15
-7 -15 -15z"/>
<path d="M1450 435 c0 -8 3 -15 6 -15 3 0 12 7 20 15 14 13 13 15 -5 15 -12 0
-21 -6 -21 -15z"/>
<path d="M2517 410 c-4 -17 -2 -18 14 -9 11 5 17 14 14 20 -10 15 -22 10 -28
-11z"/>
<path d="M565 404 c-39 -14 -68 -34 -49 -34 24 1 98 28 102 38 5 15 -3 14 -53
-4z"/>
<path d="M342 319 c2 -7 10 -15 17 -17 8 -3 12 1 9 9 -2 7 -10 15 -17 17 -8 3
-12 -1 -9 -9z"/>
<path d="M2018 245 c-18 -19 -529 -115 -608 -115 -21 0 -30 -4 -27 -12 6 -20
366 -15 486 6 104 18 253 65 258 82 6 20 -92 55 -109 39z"/>
<path d="M2087 163 c-183 -77 -502 -104 -817 -69 -118 13 -372 7 -388 -9 -5
-5 33 -9 52 -6 13 3 36 -20 30 -30 -3 -5 3 -6 12 -2 11 4 13 8 6 11 -30 10 -9
24 31 20 150 -16 238 -32 233 -43 -2 -6 5 -17 16 -24 18 -11 19 -10 13 8 -9
30 40 29 66 -1 14 -17 17 -18 13 -6 -5 16 0 18 40 18 25 0 46 -4 46 -9 0 -13
43 -22 54 -11 12 12 93 13 100 2 3 -5 47 -3 98 4 64 9 94 10 99 2 4 -7 9 -6
14 1 5 9 10 9 20 1 9 -7 14 -8 17 0 1 5 25 12 51 14 27 2 51 6 54 10 3 3 18 3
32 0 24 -5 25 -4 8 9 -17 14 -11 17 65 43 96 33 96 33 125 23 24 -9 53 14 33
26 -5 3 -10 3 -10 -2 0 -4 -6 3 -13 17 -16 32 -30 33 -100 3z"/>
<path d="M215 149 c3 -4 -1 -10 -7 -12 -7 -3 2 -6 20 -6 17 -1 32 4 32 9 0 6
5 10 11 10 5 0 7 -5 3 -12 -4 -7 -3 -8 4 -4 23 14 12 23 -28 23 -22 0 -37 -3
-35 -8z"/>
<path d="M480 130 c0 -5 14 -7 33 -3 45 8 47 13 4 13 -20 0 -37 -4 -37 -10z"/>
<path d="M740 120 c0 -5 5 -10 11 -10 5 0 7 -5 3 -11 -5 -8 -1 -8 13 0 11 6
23 7 27 4 3 -3 6 -1 6 5 0 8 37 12 113 15 111 3 111 3 -30 5 -90 1 -143 -2
-143 -8z"/>
<path d="M2101 90 c-13 -11 -18 -20 -13 -20 6 0 14 5 18 11 3 6 17 9 30 6 16
-3 24 0 24 9 0 20 -31 17 -59 -6z"/>
</g>
  <!-- layer: 4971 px -->
  <g transform="translate(0.000000,177.000000) scale(0.100000,-0.100000)"
fill="rgb(186,195,204)" stroke="none">
<path d="M1004 1649 c-94 -43 -181 -47 -284 -13 -26 8 -106 -94 -92 -117 17
-26 15 -114 -3 -182 -31 -117 -14 -197 55 -269 25 -26 58 -49 75 -53 17 -4 45
-13 63 -21 17 -8 54 -18 80 -21 48 -5 54 -4 152 40 162 73 205 200 128 379
-39 89 -46 134 -27 170 10 19 6 26 -37 64 -56 49 -55 49 -110 23z m-140 -343
c-3 -14 -10 -26 -15 -26 -11 0 -11 3 1 36 13 33 23 26 14 -10z"/>
<path d="M45 1269 c-12 -19 5 -23 22 -6 16 16 16 17 1 17 -9 0 -20 -5 -23 -11z"/>
<path d="M865 710 c-4 -6 -1 -17 5 -25 16 -19 5 -34 -44 -56 -53 -24 -76 -24
-69 -1 2 10 -2 24 -11 31 -8 7 -12 19 -9 27 9 24 -86 7 -228 -41 -91 -30 -108
-45 -90 -78 11 -21 11 -28 -3 -49 -12 -19 -14 -31 -7 -49 9 -21 10 -22 11 -4
1 11 4 15 7 8 3 -9 11 -6 26 9 47 45 213 106 201 74 -8 -22 3 -21 125 15 154
44 166 55 135 117 -15 32 -37 41 -49 22z"/>
<path d="M150 582 c0 -14 39 -46 47 -39 3 4 -2 16 -12 27 -19 21 -35 26 -35
12z"/>
<path d="M331 561 c-22 -17 -23 -20 -10 -50 18 -39 25 -39 32 2 3 17 8 40 12
50 9 22 -4 21 -34 -2z"/>
<path d="M2187 502 c-10 -10 -17 -24 -17 -30 0 -7 -4 -12 -10 -12 -5 0 -10 5
-10 11 0 5 -4 7 -10 4 -15 -10 -12 -35 5 -35 8 0 15 -7 15 -15 0 -8 -7 -15
-15 -15 -17 0 -21 -45 -5 -55 52 -32 123 83 90 146 -13 24 -22 24 -43 1z"/>
<path d="M959 443 c-1 -4 0 -20 1 -36 2 -28 -46 -87 -80 -99 -8 -3 -12 -9 -8
-13 17 -18 142 28 181 66 59 59 50 83 -30 87 -35 2 -63 -1 -64 -5z"/>
<path d="M645 399 c-171 -44 -435 -175 -435 -216 0 -19 38 -16 85 7 23 11 110
34 195 50 300 60 423 121 348 174 -31 22 -54 20 -193 -15z"/>
<path d="M312 345 c12 -27 28 -34 28 -12 0 14 -20 37 -32 37 -4 0 -2 -11 4
-25z"/>
<path d="M2413 303 c-7 -2 -13 -8 -13 -13 0 -10 38 -1 46 11 6 10 -13 11 -33
2z"/>
<path d="M570 110 c0 -5 11 -10 25 -10 14 0 25 5 25 10 0 6 -11 10 -25 10 -14
0 -25 -4 -25 -10z"/>
</g>
  <!-- layer: 1941 px -->
  <g transform="translate(0.000000,177.000000) scale(0.100000,-0.100000)"
fill="rgb(105,119,132)" stroke="none">
<path d="M1161 1721 c-11 -7 -9 -10 8 -16 13 -4 25 -4 28 -1 4 3 0 6 -8 6 -11
0 -11 2 1 10 13 9 13 10 0 10 -8 0 -21 -4 -29 -9z"/>
<path d="M1540 1591 c0 -9 24 -21 42 -21 6 0 6 6 -2 15 -14 16 -40 20 -40 6z"/>
<path d="M489 1578 c-11 -38 -8 -48 12 -38 16 9 18 14 8 26 -11 13 -18 17 -20
12z"/>
<path d="M341 1466 c-19 -23 12 -27 45 -5 16 10 24 19 17 19 -6 0 -15 -4 -18
-10 -3 -5 -13 -10 -21 -10 -8 0 -12 5 -9 10 9 15 -1 12 -14 -4z"/>
<path d="M1834 1461 c8 -12 46 -21 46 -11 0 8 -24 20 -41 20 -6 0 -8 -4 -5 -9z"/>
<path d="M1882 1227 c-20 -24 -35 -72 -18 -58 13 11 40 71 32 71 -2 0 -8 -6
-14 -13z"/>
<path d="M944 896 c3 -14 2 -28 -4 -31 -30 -18 1 -25 115 -25 103 0 125 3 125
15 0 11 -20 15 -102 17 -96 3 -104 5 -113 26 -13 30 -29 28 -21 -2z"/>
<path d="M1618 903 c-10 -2 -18 -9 -18 -14 0 -11 39 -2 55 12 9 9 -6 10 -37 2z"/>
<path d="M1540 880 c0 -5 9 -10 20 -10 11 0 20 5 20 10 0 6 -9 10 -20 10 -11
0 -20 -4 -20 -10z"/>
<path d="M823 853 c-29 -3 -43 -9 -43 -18 0 -14 63 -13 108 1 19 5 14 24 -5
22 -10 -1 -37 -3 -60 -5z"/>
<path d="M1247 846 c-5 -13 2 -16 39 -16 32 0 44 4 42 13 -7 19 -74 21 -81 3z"/>
<path d="M1370 835 c0 -9 9 -15 24 -15 13 0 26 7 30 15 4 11 -2 15 -24 15 -20
0 -30 -5 -30 -15z"/>
<path d="M720 825 c0 -17 2 -18 24 -9 23 9 20 24 -4 24 -11 0 -20 -7 -20 -15z"/>
<path d="M1450 826 c0 -11 9 -16 26 -16 31 0 28 23 -4 28 -15 2 -22 -2 -22
-12z"/>
<path d="M1520 817 c0 -12 19 -16 83 -22 56 -4 106 -16 157 -37 104 -42 403
-198 414 -216 6 -11 10 -11 16 -2 5 8 15 4 32 -15 15 -16 28 -23 32 -17 3 6
15 8 26 5 11 -3 20 0 20 6 0 6 -9 11 -19 11 -19 0 -58 19 -321 157 -74 39
-153 76 -175 83 -22 7 -47 18 -55 25 -8 7 -48 15 -89 19 -41 3 -85 9 -98 12
-16 5 -23 2 -23 -9z"/>
<path d="M525 779 c-27 -11 -65 -23 -84 -27 -19 -4 -36 -13 -38 -19 -7 -19
143 23 171 48 20 18 -1 16 -49 -2z"/>
<path d="M940 740 c0 -6 45 -10 115 -10 70 0 115 4 115 10 0 6 -45 10 -115 10
-70 0 -115 -4 -115 -10z"/>
<path d="M356 715 c-18 -28 -10 -33 20 -10 12 9 14 14 6 15 -7 0 -10 5 -7 10
14 22 -4 8 -19 -15z"/>
<path d="M820 730 c0 -5 9 -10 20 -10 11 0 20 5 20 10 0 6 -9 10 -20 10 -11 0
-20 -4 -20 -10z"/>
<path d="M1220 730 c0 -5 9 -10 20 -10 11 0 20 5 20 10 0 6 -9 10 -20 10 -11
0 -20 -4 -20 -10z"/>
<path d="M1430 710 c0 -5 17 -12 38 -15 20 -4 52 -11 70 -15 24 -6 32 -5 29 3
-2 6 -19 14 -38 18 -87 17 -99 18 -99 9z"/>
<path d="M2479 673 c-13 -34 -8 -37 17 -8 17 19 19 25 7 29 -8 4 -17 -4 -24
-21z"/>
<path d="M1796 645 c-13 -9 -15 -15 -7 -15 8 0 19 -8 26 -17 8 -11 25 -17 48
-16 23 1 38 -4 41 -14 4 -8 13 -13 21 -9 8 3 15 2 15 -3 0 -11 120 -55 127
-47 6 6 -99 56 -117 56 -5 0 -23 14 -38 30 -29 30 -52 39 -52 20 0 -5 -7 -10
-15 -10 -8 0 -15 9 -15 20 0 24 -8 25 -34 5z"/>
<path d="M334 605 c1 -33 16 -33 16 0 0 14 -4 25 -9 25 -5 0 -8 -11 -7 -25z"/>
<path d="M893 573 c-47 -6 -41 -23 7 -23 29 0 40 4 40 15 0 8 -3 14 -7 13 -5
0 -23 -3 -40 -5z"/>
<path d="M1010 570 c0 -6 37 -10 90 -10 53 0 90 4 90 10 0 6 -37 10 -90 10
-53 0 -90 -4 -90 -10z"/>
<path d="M1236 563 c-4 -9 7 -13 39 -13 56 0 59 17 5 22 -26 2 -41 -1 -44 -9z"/>
<path d="M798 562 c-44 -4 -52 -22 -10 -22 26 0 62 15 52 22 -3 2 -22 2 -42 0z"/>
<path d="M1353 556 c4 -14 47 -21 47 -8 0 5 -11 12 -25 15 -16 3 -24 0 -22 -7z"/>
<path d="M1430 546 c0 -10 9 -16 25 -16 14 0 25 5 25 10 0 6 -4 10 -9 10 -5 0
-16 3 -25 6 -11 4 -16 1 -16 -10z"/>
<path d="M1496 534 c-4 -9 1 -14 14 -14 23 0 27 15 6 23 -8 3 -17 -1 -20 -9z"/>
<path d="M1550 524 c0 -8 6 -14 13 -14 6 0 23 -3 36 -7 17 -4 22 -2 19 8 -6
19 -68 31 -68 13z"/>
<path d="M2145 519 c-4 -6 -20 -8 -38 -4 -30 6 -31 5 -13 -10 26 -20 39 -19
61 5 10 11 13 20 7 20 -6 0 -14 -5 -17 -11z"/>
<path d="M900 460 c0 -5 14 -10 30 -10 17 0 30 5 30 10 0 6 -13 10 -30 10 -16
0 -30 -4 -30 -10z"/>
<path d="M1190 460 c0 -5 20 -10 45 -10 25 0 45 5 45 10 0 6 -20 10 -45 10
-25 0 -45 -4 -45 -10z"/>
<path d="M1820 458 c0 -10 1 -18 3 -18 1 0 16 -4 33 -9 24 -7 31 -6 31 5 0 10
-7 12 -19 8 -13 -4 -25 1 -33 13 -13 17 -14 17 -15 1z"/>
<path d="M2250 435 c0 -14 5 -25 10 -25 6 0 10 11 10 25 0 14 -4 25 -10 25 -5
0 -10 -11 -10 -25z"/>
<path d="M658 428 c-21 -6 -38 -15 -38 -20 0 -6 6 -8 14 -5 8 3 31 9 50 13 20
3 36 10 36 15 0 11 -13 10 -62 -3z"/>
<path d="M1500 431 c0 -5 9 -11 20 -14 24 -6 27 8 4 17 -21 8 -24 8 -24 -3z"/>
<path d="M1906 424 c-3 -8 -1 -14 3 -14 5 0 16 -2 24 -5 8 -4 14 0 14 9 0 19
-34 28 -41 10z"/>
<path d="M1972 402 c-8 -6 16 -18 68 -36 44 -16 83 -32 86 -37 10 -17 25 -10
16 7 -9 16 -68 43 -102 47 -8 1 -21 8 -28 15 -16 14 -22 15 -40 4z"/>
<path d="M1730 380 c0 -16 44 -30 52 -16 4 6 0 14 -10 18 -26 10 -42 9 -42 -2z"/>
<path d="M2360 381 c0 -9 24 -21 41 -21 5 0 9 7 9 15 0 9 -9 15 -25 15 -14 0
-25 -4 -25 -9z"/>
<path d="M2250 365 c0 -9 6 -12 15 -9 8 4 15 1 15 -5 0 -6 -4 -11 -10 -11 -5
0 -10 -7 -10 -15 0 -20 16 -19 24 1 3 9 11 12 18 8 7 -4 2 5 -11 19 -27 30
-41 34 -41 12z"/>
<path d="M1910 349 c0 -7 -10 -9 -26 -5 -18 5 -25 3 -22 -6 5 -14 73 -19 103
-8 18 7 18 9 -8 19 -36 14 -47 14 -47 0z"/>
<path d="M1991 321 c-1 -8 -8 -11 -20 -8 -14 3 -18 1 -14 -9 3 -8 16 -17 30
-20 42 -11 19 -27 -61 -45 -75 -16 -94 -24 -85 -34 4 -4 50 7 222 49 9 2 15 1
12 -4 -3 -4 2 -11 11 -14 8 -3 12 -2 9 4 -3 6 1 10 9 10 8 0 18 -4 21 -10 3
-5 0 -10 -7 -10 -10 0 -10 -2 1 -9 7 -5 11 -14 7 -20 -17 -27 -284 -91 -385
-91 -25 0 -53 -4 -61 -10 -77 -48 264 5 415 65 40 16 71 23 78 18 7 -4 -1 4
-18 19 -38 34 -20 36 25 3 40 -29 40 -29 40 -10 0 9 -6 15 -12 13 -7 -1 -45
19 -84 44 -40 26 -78 49 -85 50 -8 2 -17 8 -21 13 -5 6 -8 4 -9 -5 0 -10 -3
-8 -9 5 -5 11 -9 14 -9 6z"/>
<path d="M2335 299 c-4 -6 -5 -13 -2 -16 7 -7 27 6 27 18 0 12 -17 12 -25 -2z"/>
<path d="M2218 251 c4 -29 4 -29 40 -14 53 22 57 29 12 25 -25 -3 -40 0 -40 7
0 6 -4 11 -8 11 -5 0 -7 -13 -4 -29z"/>
<path d="M1803 213 c-18 -7 -16 -23 2 -23 8 0 15 7 15 15 0 8 -1 15 -2 14 -2
0 -9 -3 -15 -6z"/>
<path d="M1755 204 c-5 -1 -22 -5 -37 -8 -43 -10 -34 -28 10 -20 20 4 39 8 41
10 7 6 -4 21 -14 18z"/>
<path d="M1643 183 c-20 -8 -15 -23 7 -23 11 0 20 7 20 15 0 15 -6 17 -27 8z"/>
<path d="M1588 172 c-10 -2 -18 -8 -18 -13 0 -13 27 -11 35 2 9 13 4 16 -17
11z"/>
<path d="M1523 162 c-13 -2 -23 -8 -23 -13 0 -13 37 -11 45 2 9 14 5 16 -22
11z"/>
<path d="M1438 153 c-27 -7 -22 -23 7 -23 16 0 25 6 25 15 0 15 -2 16 -32 8z"/>
<path d="M1346 142 c-11 -2 -26 -10 -34 -18 -8 -9 -38 -15 -80 -15 -66 -2 -65
-2 38 -14 133 -17 170 -18 170 -5 0 6 -11 10 -25 10 -15 0 -29 9 -37 23 -8 15
-20 22 -32 19z"/>
<path d="M697 123 c-14 -14 -6 -23 12 -14 10 6 21 7 25 4 3 -3 6 -1 6 5 0 13
-32 16 -43 5z"/>
<path d="M927 123 c-59 -2 -95 -8 -92 -13 4 -6 1 -10 -6 -10 -7 0 -4 -6 6 -14
15 -10 25 -11 39 -4 11 6 68 13 128 16 82 4 108 8 108 18 0 10 -12 13 -42 12
-24 -1 -87 -4 -141 -5z"/>
<path d="M2051 97 c-64 -23 -79 -32 -67 -39 9 -5 13 -14 10 -20 -4 -6 7 -3 25
8 17 10 31 22 31 27 0 5 6 7 14 4 8 -3 26 3 39 14 14 10 35 19 48 19 22 0 19
13 -4 15 -7 1 -50 -12 -96 -28z"/>
<path d="M970 71 c0 -6 9 -11 20 -11 11 0 20 -4 20 -9 0 -5 7 -12 16 -15 8 -3
12 -2 9 3 -10 17 12 21 25 6 9 -11 16 -12 25 -5 9 8 15 8 20 0 4 -6 13 -9 20
-6 7 2 33 -2 58 -9 39 -12 47 -12 58 1 16 20 16 20 -86 33 -166 23 -185 24
-185 12z"/>
<path d="M1270 31 c0 -16 19 -23 40 -16 30 10 24 25 -10 25 -16 0 -30 -4 -30
-9z"/>
<path d="M1350 20 c0 -5 6 -7 14 -4 8 3 17 1 20 -4 7 -11 56 -3 56 9 0 5 -20
9 -45 9 -25 0 -45 -4 -45 -10z"/>
<path d="M1496 12 c-2 -4 20 -8 49 -8 30 -1 52 3 49 7 -7 11 -91 12 -98 1z"/>
</g>
  <!-- layer: 532 px -->
  <g transform="translate(0.000000,177.000000) scale(0.100000,-0.100000)"
fill="rgb(98,113,127)" stroke="none">
<path d="M1180 850 c0 -5 16 -10 35 -10 19 0 35 5 35 10 0 6 -16 10 -35 10
-19 0 -35 -4 -35 -10z"/>
<path d="M1330 840 c0 -5 9 -10 20 -10 11 0 20 5 20 10 0 6 -9 10 -20 10 -11
0 -20 -4 -20 -10z"/>
<path d="M1660 662 c0 -10 41 -24 49 -17 6 7 0 11 -26 19 -13 4 -23 3 -23 -2z"/>
<path d="M1730 642 c0 -5 11 -13 24 -16 13 -3 31 -9 40 -12 9 -3 16 -2 16 4 0
5 -11 13 -24 16 -13 3 -31 9 -40 12 -9 3 -16 2 -16 -4z"/>
<path d="M940 570 c0 -5 16 -10 35 -10 19 0 35 5 35 10 0 6 -16 10 -35 10 -19
0 -35 -4 -35 -10z"/>
<path d="M1190 570 c0 -5 11 -10 25 -10 14 0 25 5 25 10 0 6 -11 10 -25 10
-14 0 -25 -4 -25 -10z"/>
<path d="M1740 482 c0 -5 11 -13 24 -16 13 -3 31 -9 40 -12 9 -3 16 -2 16 4 0
5 -11 13 -24 16 -13 3 -31 9 -40 12 -9 3 -16 2 -16 -4z"/>
<path d="M1630 402 c0 -10 51 -24 59 -16 7 6 -2 12 -32 19 -16 4 -27 3 -27 -3z"/>
<path d="M1780 362 c0 -5 11 -13 24 -16 13 -3 31 -9 40 -12 9 -3 16 -2 16 4 0
5 -11 13 -24 16 -13 3 -31 9 -40 12 -9 3 -16 2 -16 -4z"/>
<path d="M1895 322 c6 -6 24 -14 40 -18 21 -4 27 -3 20 4 -5 6 -23 14 -40 18
-21 4 -27 3 -20 -4z"/>
<path d="M2095 240 c3 -5 12 -10 19 -10 6 0 29 -16 50 -35 38 -35 56 -43 56
-26 0 5 -24 25 -54 45 -53 35 -84 46 -71 26z"/>
<path d="M1370 140 c0 -5 11 -10 25 -10 14 0 25 5 25 10 0 6 -11 10 -25 10
-14 0 -25 -4 -25 -10z"/>
<path d="M1270 132 c0 -4 -36 -6 -80 -4 -54 3 -80 1 -80 -7 0 -12 165 -16 194
-5 25 9 19 24 -9 24 -14 0 -25 -3 -25 -8z"/>
<path d="M800 110 c0 -5 9 -10 21 -10 11 0 17 5 14 10 -3 6 -13 10 -21 10 -8
0 -14 -4 -14 -10z"/>
<path d="M1440 90 c0 -6 45 -10 115 -10 70 0 115 4 115 10 0 6 -45 10 -115 10
-70 0 -115 -4 -115 -10z"/>
</g>
</svg>
